Rust and Bone (2012)

Plot: Put in charge of his young son, Ali leaves Belgium for Antibes to live with his sister and her husband as a family. Ali's bond with Stephanie, a killer whale trainer, grows deeper after Stephanie suffers a horrible accident. 

Cast:
Marion Cotillard ... Stéphanie 
Matthias Schoenaerts ... Alain van Versch 
Armand Verdure ... Sam 
Céline Sallette ... Louise 
Corinne Masiero ... Anna 
Bouli Lanners ... Martial 
Jean-Michel Correia ... Richard 
Mourad Frarema ... Foued 
Yannick Choirat ... Simon 

Details
Original title: De Rouille et D'os
Genre: Drama | Romance
Runtime: 120 min
Country: France | Belgium
Language: French
Rated: R

Directed by
Jacques Audiard

Writing credits
Jacques Audiard
Thomas Bidegain, based on the novel by Craig Davidson

IMDb: http://www.imdb.com/title/tt2053425/

--------------------------------------------------------------------------------

MediaInfo:

General
Format                                   : AVI
Format/Info                              : Audio Video Interleave
File size                                : 700 MiB
Duration                                 : 2h 2mn
Overall bit rate mode                    : Variable
Overall bit rate                         : 801 Kbps
Writing application                      : VirtualDubMod 1.5.10.2 (build 2542/release)
Writing library                          : VirtualDubMod build 2542/release

Video
ID                                       : 0
Format                                   : MPEG-4 Visual
Format profile                           : Advanced Simple@L5
Format settings, BVOP                    : 1
Format settings, QPel                    : No
Format settings, GMC                     : No warppoints
Format settings, Matrix                  : Default (H.263)
Muxing mode                              : Packed bitstream
Codec ID                                 : XVID
Codec ID/Hint                            : XviD
Duration                                 : 2h 2mn
Bit rate                                 : 659 Kbps
Width                                    : 640 pixels
Height                                   : 272 pixels
Display aspect ratio                     : 2.35:1
Frame rate                               : 24.000 fps
Color space                              : YUV
Chroma subsampling                       : 4:2:0
Bit depth                                : 8 bits
Scan type                                : Progressive
Compression mode                         : Lossy
Bits/(Pixel*Frame)                       : 0.158
Stream size                              : 575 MiB (82%)
Writing library                          : XviD 62

Audio
ID                                       : 1
Format                                   : MPEG Audio
Format version                           : Version 1
Format profile                           : Layer 3
Mode                                     : Joint stereo
Mode extension                           : MS Stereo
Codec ID                                 : 55
Codec ID/Hint                            : MP3
Duration                                 : 2h 2mn
Bit rate mode                            : Variable
Bit rate                                 : 130 Kbps
Minimum bit rate                         : 112 Kbps
Channel(s)                               : 2 channels
Sampling rate                            : 48.0 KHz
Compression mode                         : Lossy
Stream size                              : 114 MiB (16%)
Alignment                                : Aligned on interleaves
Interleave, duration                     : 24 ms (0.58 video frame)
Interleave, preload duration             : 141 ms
Writing library                          : LAME3.98r
Encoding settings                        : -m j -V 4 -q 0 -lowpass 17.5 --vbr-new -b 112

--------------------------------------------------------------------------------

Screenshots: 
http://i.imgur.com/FHCij.jpg
 
http://i.imgur.com/98ad0.jpg
 
http://i.imgur.com/DeXxW.jpg
 
http://i.imgur.com/FNscF.jpg
 
http://i.imgur.com/ztBNR.jpg
 
http://i.imgur.com/8WCDS.jpg
 
http://i.imgur.com/OMSSx.jpg
 
http://i.imgur.com/yFq0e.jpg
 
http://i.imgur.com/OBGau.jpg
 
http://i.imgur.com/QTBUF.jpg
 
http://i.imgur.com/gXSZ5.jpg